<svg width="34" height="73" viewBox="0 0 34 73" fill="none" xmlns="http://www.w3.org/2000/svg">
<path d="M10.68 21.42V48.9C10.68 50.02 10.8 50.86 11.04 51.42C11.32 51.98 11.82 52.36 12.54 52.56C13.3 52.76 14.4 52.86 15.84 52.86H23.52C25.64 52.86 27.26 52.16 28.38 50.76C29.5 49.36 30.22 47.52 30.54 45.24C30.54 45.12 30.64 45.08 30.84 45.12C31.08 45.12 31.2 45.18 31.2 45.3C31.08 46.34 30.96 47.6 30.84 49.08C30.72 50.52 30.66 51.86 30.66 53.1C30.66 53.7 30.36 54 29.76 54H2.16C2.08 54 2.04 53.88 2.04 53.64C2.04 53.4 2.08 53.28 2.16 53.28C3.68 53.28 4.82 53.18 5.58 52.98C6.34 52.78 6.84 52.38 7.08 51.78C7.36 51.18 7.5 50.3 7.5 49.14V21.36C7.5 20.2 7.36 19.34 7.08 18.78C6.84 18.18 6.34 17.78 5.58 17.58C4.82 17.34 3.68 17.22 2.16 17.22C2.08 17.22 2.04 17.1 2.04 16.86C2.04 16.62 2.08 16.5 2.16 16.5C3.12 16.5 4.18 16.54 5.34 16.62C6.54 16.66 7.78 16.68 9.06 16.68C10.42 16.68 11.68 16.66 12.84 16.62C14.04 16.54 15.1 16.5 16.02 16.5C16.1 16.5 16.14 16.62 16.14 16.86C16.14 17.1 16.1 17.22 16.02 17.22C14.5 17.22 13.36 17.34 12.6 17.58C11.84 17.78 11.32 18.18 11.04 18.78C10.8 19.38 10.68 20.26 10.68 21.42Z" fill="#8A8686"/>
<path d="M10.2 58C10.1333 58 10.1 57.9 10.1 57.7C10.1 57.5 10.1333 57.4 10.2 57.4C11.4667 57.4 12.4167 57.3167 13.05 57.15C13.6833 56.9833 14.1 56.65 14.3 56.15C14.5333 55.65 14.65 54.9167 14.65 53.95V30.8C14.65 29.8333 14.5333 29.1167 14.3 28.65C14.1 28.15 13.6833 27.8167 13.05 27.65C12.4167 27.45 11.4667 27.35 10.2 27.35C10.1333 27.35 10.1 27.25 10.1 27.05C10.1 26.85 10.1333 26.75 10.2 26.75H30C30.3 26.75 30.45 26.9 30.45 27.2L30.55 33.25C30.55 33.35 30.45 33.4 30.25 33.4C30.0833 33.4 30 33.35 30 33.25C30 31.5167 29.55 30.1667 28.65 29.2C27.75 28.2 26.5667 27.7 25.1 27.7H21.65C19.85 27.7 18.6667 27.9 18.1 28.3C17.5667 28.7 17.3 29.55 17.3 30.85V53.75C17.3 54.75 17.4333 55.5167 17.7 56.05C18 56.55 18.6 56.9 19.5 57.1C20.4 57.3 21.75 57.4 23.55 57.4C23.65 57.4 23.7 57.5 23.7 57.7C23.7 57.9 23.65 58 23.55 58C22.4833 58 21.3167 57.9833 20.05 57.95C18.8167 57.9167 17.4667 57.9 16 57.9C14.9333 57.9 13.9 57.9167 12.9 57.95C11.9 57.9833 11 58 10.2 58ZM27.45 46.85C27.45 45.35 27.0833 44.3 26.35 43.7C25.65 43.1 24.3833 42.8 22.55 42.8H16.05V41.85H22.75C24.4833 41.85 25.6833 41.5833 26.35 41.05C27.05 40.5167 27.4 39.6333 27.4 38.4C27.4 38.3333 27.5 38.3 27.7 38.3C27.9 38.3 28 38.3333 28 38.4C28 39.3667 27.9833 40.1167 27.95 40.65C27.95 41.1833 27.95 41.75 27.95 42.35C27.95 43.0833 27.9667 43.8167 28 44.55C28.0333 45.25 28.05 46.0167 28.05 46.85C28.05 46.9167 27.95 46.95 27.75 46.95C27.55 46.95 27.45 46.9167 27.45 46.85Z" fill="white"/>
</svg>
